# File created by Blade
# Date/Time:  Tue Jan 27 17:21:46 2015
#---------------------------------------------------------
:version 1.10
:name HOM
:units
  mass 1.0
  length 1.000000
  angle deg
:documentation
     Acclaim Skeleton File
:root
   axis xyz
   order TX TY TZ RX RY RZ
   position 0.000000 0.000000 0.000000
   orientation 0 0 0
:bonedata
   begin
      id 1
      name Spine_dum
      direction 0.000000 1.000000 0.000000
      length 7.539951
      axis 0.0 0.0 0.0 xyz
   end
   begin
      id 2
      name LeftUpLeg_dum
      direction 1.000000 0.000000 0.000000
      length 3.345476
      axis 0.0 0.0 0.0 xyz
   end
   begin
      id 3
      name RightUpLeg_dum
      direction -1.000000 0.000000 0.000000
      length 3.345476
      axis 0.0 0.0 0.0 xyz
   end
   begin
      id 4
      name Spine
      direction 0.000000 1.000000 0.000000
      length 0.000000
      axis 0.0 0.0 0.0 xyz
      dof rx ry rz
   end
   begin
      id 5
      name Spine_dum1
      direction 0.000000 1.000000 0.000000
      length 15.093809
      axis 0.0 0.0 0.0 xyz
   end
   begin
      id 6
      name Spine_dum2
      direction 0.000000 1.000000 0.000000
      length 9.738928
      axis 0.0 0.0 0.0 xyz
   end
   begin
      id 7
      name Spine_dum3
      direction 0.000000 1.000000 0.000000
      length 9.738928
      axis 0.0 0.0 0.0 xyz
   end
   begin
      id 8
      name Head
      direction 0.000000 1.000000 0.000000
      length 4.527550
      axis 0.0 0.0 0.0 xyz
      dof rx ry rz
   end
   begin
      id 9
      name LeftShoulder
      direction 1.000000 0.000000 0.000000
      length 7.084015
      axis 0.0 0.0 -90.0 xyz
      dof rx ry rz
   end
   begin
      id 10
      name LeftArm
      direction 1.000000 0.000000 0.000000
      length 10.259319
      axis 0.0 0.0 -90.0 xyz
      dof rx ry rz
   end
   begin
      id 11
      name LeftForeArm
      direction 1.000000 0.000000 0.000000
      length 9.896984
      axis 0.0 0.0 -90.0 xyz
      dof ry rz rx
   end
   begin
      id 12
      name LeftHand
      direction 0.000000 0.000000 0.000000
      length 0.000000
      axis 0.0 0.0 -90.0 xyz
      dof rx ry rz
   end
   begin
      id 13
      name LeftHand_dum1
      direction 0.000000 0.000000 0.000000
      length 0.000000
      axis 0.0 0.0 -90.0 xyz
   end
   begin
      id 14
      name LeftHand_dum2
      direction 1.000000 0.000000 0.000000
      length 3.937000
      axis 0.0 0.0 -90.0 xyz
   end
   begin
      id 15
      name LeftHandThumb1
      direction 0.000000 0.000000 1.000000
      length 3.937000
      axis 0.0 0.0 -90.0 xyz
      dof rx rz ry
   end
   begin
      id 16
      name RightShoulder
      direction -1.000000 0.000000 0.000000
      length 7.084015
      axis 0.0 0.0 90.0 xyz
      dof rx ry rz
   end
   begin
      id 17
      name RightArm
      direction -1.000000 0.000000 0.000000
      length 10.259319
      axis 0.0 0.0 90.0 xyz
      dof rx ry rz
   end
   begin
      id 18
      name RightForeArm
      direction -1.000000 0.000000 0.000000
      length 9.896984
      axis 0.0 0.0 90.0 xyz
      dof ry rz rx
   end
   begin
      id 19
      name RightHand
      direction 0.000000 0.000000 0.000000
      length 0.000000
      axis 0.0 0.0 90.0 xyz
      dof rx ry rz
   end
   begin
      id 20
      name RightHand_dum1
      direction 0.000000 0.000000 0.000000
      length 0.000000
      axis 0.0 0.0 90.0 xyz
   end
   begin
      id 21
      name RightHand_dum2
      direction -1.000000 0.000000 0.000000
      length 3.937000
      axis 0.0 0.0 90.0 xyz
   end
   begin
      id 22
      name RightHandThumb1
      direction 0.000000 0.000000 1.000000
      length 3.937000
      axis 0.0 0.0 90.0 xyz
      dof rx rz ry
   end
   begin
      id 23
      name LeftUpLeg
      direction 0.000000 -1.000000 0.000000
      length 19.114733
      axis 0.0 0.0 0.0 xyz
      dof rx ry rz
   end
   begin
      id 24
      name LeftLeg
      direction 0.000000 -1.000000 0.000000
      length 16.045604
      axis 0.0 0.0 0.0 xyz
      dof rx ry rz
   end
   begin
      id 25
      name LeftFoot
      direction 0.000000 -0.258819 0.965926
      length 5.543155
      axis 15.0 0.0 0.0 xyz
      dof rx ry rz
   end
   begin
      id 26
      name LeftToeBase
      direction 0.000000 0.000000 1.000000
      length 2.952750
      axis 0.0 0.0 0.0 xyz
      dof rx ry rz
   end
   begin
      id 27
      name RightUpLeg
      direction 0.000000 -1.000000 0.000000
      length 19.114733
      axis 0.0 0.0 0.0 xyz
      dof rx ry rz
   end
   begin
      id 28
      name RightLeg
      direction 0.000000 -1.000000 0.000000
      length 16.045604
      axis 0.0 0.0 0.0 xyz
      dof rx ry rz
   end
   begin
      id 29
      name RightFoot
      direction 0.000000 -0.258819 0.965926
      length 5.543155
      axis 15.0 0.0 0.0 xyz
      dof rx ry rz
   end
   begin
      id 30
      name RightToeBase
      direction 0.000000 0.000000 1.000000
      length 2.952750
      axis 0.0 0.0 0.0 xyz
      dof rx ry rz
   end
:hierarchy
   begin
      root Spine_dum LeftUpLeg_dum RightUpLeg_dum
      Spine_dum Spine
      LeftUpLeg_dum LeftUpLeg
      RightUpLeg_dum RightUpLeg
      Spine Spine_dum1 Spine_dum2 Spine_dum3
      Spine_dum1 Head
      Spine_dum2 LeftShoulder
      Spine_dum3 RightShoulder
      LeftShoulder LeftArm
      LeftArm LeftForeArm
      LeftForeArm LeftHand
      LeftHand LeftHand_dum1 LeftHand_dum2
      LeftHand_dum1 LeftHandThumb1
      RightShoulder RightArm
      RightArm RightForeArm
      RightForeArm RightHand
      RightHand RightHand_dum1 RightHand_dum2
      RightHand_dum1 RightHandThumb1
      LeftUpLeg LeftLeg
      LeftLeg LeftFoot
      LeftFoot LeftToeBase
      RightUpLeg RightLeg
      RightLeg RightFoot
      RightFoot RightToeBase
   end

# File created by Blade
# Date/Time:  Tue Jan 27 17:21:37 2015
# Frame Rate: 120.000 fps
#------------------------------------------------------
:FULLY-SPECIFIED
:DEGREES
2878
root -1.578475 36.492325 -0.136937 3.532749 45.639912 4.711508
Spine 7.654072 4.676781 -3.084334
Head 2.869762 -11.313429 0.688284
LeftShoulder 3.950560 -17.618288 10.535423
LeftArm 15.214468 -8.912807 -49.012699
LeftForeArm 7.786704 -0.000000 69.228760
LeftHand -22.527439 -0.000000 58.603976
LeftHandThumb1 -26.253704 0.000000 33.147579
RightShoulder 0.264967 -13.875095 0.515355
RightArm 36.192513 -19.153267 44.577975
RightForeArm 183.357159 -0.000000 38.044760
RightHand 0.430131 -0.000000 2.613230
RightHandThumb1 -24.326973 -0.000000 -32.862282
LeftUpLeg -49.128289 5.707166 9.851096
LeftLeg 86.846901 -0.000000 -0.000000
LeftFoot -5.381102 3.290938 -29.093914
LeftToeBase 15.263275 -0.000000 -0.000000
RightUpLeg -9.972072 -7.566092 4.829070
RightLeg 22.942797 -0.000000 -0.000000
RightFoot -18.406804 -9.955136 -5.320207
RightToeBase 1.924891 -0.000000 -0.000000
2879
root -1.584993 36.493015 -0.175697 3.480870 44.938278 4.695476
Spine 7.700038 4.986555 -3.153510
Head 2.939781 -11.525076 0.642053
LeftShoulder 3.895236 -17.667102 10.601020
LeftArm 14.906795 -9.000372 -48.987463
LeftForeArm 7.902810 -0.000000 69.547578
LeftHand -22.612246 -0.000000 58.744384
LeftHandThumb1 -26.253704 0.000000 33.147579
RightShoulder 0.404402 -13.826750 0.421104
RightArm 36.692036 -19.226331 44.507050
RightForeArm 183.519564 -0.000000 37.962551
RightHand 0.491481 -0.000000 2.407661
RightHandThumb1 -24.326973 -0.000000 -32.862282
LeftUpLeg -48.920439 5.544783 9.860753
LeftLeg 86.930439 -0.000000 -0.000000
LeftFoot -5.144150 3.056404 -29.185136
LeftToeBase 14.862421 -0.000000 -0.000000
RightUpLeg -9.999047 -7.364330 4.776491
RightLeg 22.960393 -0.000000 -0.000000
RightFoot -18.518933 -9.773167 -5.466910
RightToeBase 2.172876 -0.000000 -0.000000
2880
root -1.589537 36.493887 -0.212813 3.414012 44.264789 4.670183
Spine 7.778002 5.311812 -3.205875
Head 2.911918 -11.721202 0.615981
LeftShoulder 3.787363 -17.529526 10.689720
LeftArm 14.846208 -9.167426 -49.019039
LeftForeArm 8.016993 -0.000000 69.828861
LeftHand -22.839575 -0.000000 59.066141
LeftHandThumb1 -26.253704 0.000000 33.147579
RightShoulder 0.503137 -13.768142 0.331659
RightArm 37.167491 -19.338523 44.391430
RightForeArm 183.645399 -0.000000 37.904350
RightHand 0.438757 -0.000000 2.422197
RightHandThumb1 -24.326973 -0.000000 -32.862282
LeftUpLeg -48.700524 5.378443 9.876164
LeftLeg 87.002946 -0.000000 -0.000000
LeftFoot -4.974274 2.767100 -29.366019
LeftToeBase 14.931966 -0.000000 -0.000000
RightUpLeg -10.007289 -7.477850 4.733078
RightLeg 22.970885 -0.000000 -0.000000
RightFoot -18.730903 -9.389625 -5.616774
RightToeBase 2.634169 -0.000000 -0.000000
2881
root -1.596637 36.495039 -0.248854 3.324189 43.591708 4.613310
Spine 7.835275 5.594402 -3.231914
Head 3.001416 -11.981385 0.510751
LeftShoulder 3.708513 -17.518349 10.714309
LeftArm 14.588627 -9.235748 -48.920346
LeftForeArm 8.051015 0.000000 70.148494
LeftHand -22.843942 -0.000000 59.170974
LeftHandThumb1 -26.253704 0.000000 33.147579
RightShoulder 0.667054 -13.717008 0.233885
RightArm 37.626325 -19.473344 44.215743
RightForeArm 183.803798 -0.000000 37.865199
RightHand 0.547749 -0.000000 2.178539
RightHandThumb1 -24.326973 -0.000000 -32.862282
LeftUpLeg -48.481109 5.231385 9.934009
LeftLeg 87.073434 -0.000000 -0.000000
LeftFoot -4.720458 2.414334 -29.219880
LeftToeBase 14.651445 -0.000000 -0.000000
RightUpLeg -9.995069 -7.561015 4.709068
RightLeg 22.952534 -0.000000 -0.000000
RightFoot -18.968275 -9.077904 -5.658154
RightToeBase 3.045731 -0.000000 -0.000000
2882
root -1.601457 36.496908 -0.282095 3.229499 42.888323 4.545743
Spine 7.873771 5.948527 -3.224640
Head 3.079854 -12.231080 0.382311
LeftShoulder 3.670659 -17.511690 10.669967
LeftArm 14.309689 -9.337986 -48.808659
LeftForeArm 8.140766 -0.000000 70.494168
LeftHand -23.008341 -0.000000 59.309545
LeftHandThumb1 -26.253704 0.000000 33.147579
RightShoulder 0.793998 -13.695687 0.123387
RightArm 38.061786 -19.640784 44.042707
RightForeArm 183.863788 -0.000000 37.869814
RightHand 0.638726 -0.000000 2.373957
RightHandThumb1 -24.326973 -0.000000 -32.862282
LeftUpLeg -48.237026 5.144756 9.994139
LeftLeg 87.134765 -0.000000 -0.000000
LeftFoot -4.412210 2.018422 -29.589602
LeftToeBase 14.564213 -0.000000 -0.000000
RightUpLeg -9.978547 -7.668188 4.687034
RightLeg 22.938432 -0.000000 -0.000000
RightFoot -19.259710 -8.840069 -5.657617
RightToeBase 3.634236 -0.000000 -0.000000
2883
root -1.606105 36.499665 -0.318602 3.207228 42.235958 4.501752
Spine 7.832601 6.238886 -3.242096
Head 3.162105 -12.459999 0.252884
LeftShoulder 3.584861 -17.469939 10.683974
LeftArm 14.060439 -9.452823 -48.792744
LeftForeArm 8.184023 -0.000000 70.801990
LeftHand -23.123869 -0.000000 59.459349
LeftHandThumb1 -26.253704 0.000000 33.147579
RightShoulder 0.930633 -13.656228 0.032997
RightArm 38.460541 -19.770798 43.901996
RightForeArm 183.909252 -0.000000 37.814606
RightHand 0.662743 -0.000000 2.195583
RightHandThumb1 -24.326973 -0.000000 -32.862282
LeftUpLeg -48.059524 5.038442 10.038733
LeftLeg 87.163797 -0.000000 -0.000000
LeftFoot -4.167198 1.699669 -29.749241
LeftToeBase 14.217354 -0.000000 -0.000000
RightUpLeg -10.007555 -7.942229 4.654709
RightLeg 22.889038 -0.000000 -0.000000
RightFoot -19.538125 -8.379214 -5.330268
RightToeBase 3.778266 -0.000000 -0.000000
